<svg width="14" height="14" viewBox="0 0 14 14" fill="none" xmlns="http://www.w3.org/2000/svg">
<path d="M12 7.99997H13C13.1326 7.99997 13.2598 7.94729 13.3536 7.85353C13.4473 7.75976 13.5 7.63258 13.5 7.49997C13.5 7.36736 13.4473 7.24019 13.3536 7.14642C13.2598 7.05265 13.1326 6.99997 13 6.99997H12V5.99997H13C13.1326 5.99997 13.2598 5.94729 13.3536 5.85353C13.4473 5.75976 13.5 5.63258 13.5 5.49997C13.5 5.36736 13.4473 5.24019 13.3536 5.14642C13.2598 5.05265 13.1326 4.99997 13 4.99997H11.975C11.8646 3.90257 11.3933 2.87277 10.635 2.07185L11.8538 0.853723C11.9002 0.807268 11.9371 0.752118 11.9622 0.691421C11.9873 0.630724 12.0003 0.56567 12.0003 0.499973C12.0003 0.434275 11.9873 0.369221 11.9622 0.308525C11.9371 0.247828 11.9002 0.192678 11.8538 0.146223C11.8073 0.0997678 11.7521 0.0629175 11.6914 0.0377762C11.6308 0.0126348 11.5657 -0.000305177 11.5 -0.000305176C11.4343 -0.000305174 11.3692 0.0126348 11.3086 0.0377762C11.2479 0.0629175 11.1927 0.0997678 11.1462 0.146223L9.87813 1.41497C9.03649 0.81961 8.03093 0.499903 7 0.499903C5.96907 0.499903 4.96351 0.81961 4.12187 1.41497L2.85375 0.146223C2.75993 0.0524026 2.63268 -0.000305176 2.5 -0.000305176C2.36732 -0.000305176 2.24007 0.0524026 2.14625 0.146223C2.05243 0.240043 1.99972 0.367291 1.99972 0.499973C1.99972 0.632655 2.05243 0.759903 2.14625 0.853723L3.365 2.07185C2.6067 2.87277 2.13544 3.90257 2.025 4.99997H1C0.867392 4.99997 0.740215 5.05265 0.646447 5.14642C0.552678 5.24019 0.5 5.36736 0.5 5.49997C0.5 5.63258 0.552678 5.75976 0.646447 5.85353C0.740215 5.94729 0.867392 5.99997 1 5.99997H2V6.99997H1C0.867392 6.99997 0.740215 7.05265 0.646447 7.14642C0.552678 7.24019 0.5 7.36736 0.5 7.49997C0.5 7.63258 0.552678 7.75976 0.646447 7.85353C0.740215 7.94729 0.867392 7.99997 1 7.99997H2V8.49997C2 8.66872 2.00875 8.8356 2.025 8.99997H1C0.867392 8.99997 0.740215 9.05265 0.646447 9.14642C0.552678 9.24019 0.5 9.36737 0.5 9.49997C0.5 9.63258 0.552678 9.75976 0.646447 9.85353C0.740215 9.9473 0.867392 9.99997 1 9.99997H2.23C2.54904 11.0152 3.18366 11.9021 4.04155 12.5318C4.89944 13.1614 5.93584 13.5009 7 13.5009C8.06416 13.5009 9.10056 13.1614 9.95845 12.5318C10.8163 11.9021 11.451 11.0152 11.77 9.99997H13C13.1326 9.99997 13.2598 9.9473 13.3536 9.85353C13.4473 9.75976 13.5 9.63258 13.5 9.49997C13.5 9.36737 13.4473 9.24019 13.3536 9.14642C13.2598 9.05265 13.1326 8.99997 13 8.99997H11.975C11.9913 8.8356 12 8.66872 12 8.49997V7.99997ZM7 1.49997C7.97381 1.50118 8.91381 1.85722 9.64408 2.50144C10.3744 3.14566 10.8448 4.03391 10.9675 4.99997H3.03C3.15271 4.03349 3.62356 3.14489 4.35435 2.50061C5.08515 1.85633 6.02576 1.50058 7 1.49997ZM7.5 12.4675V7.49997C7.5 7.36736 7.44732 7.24019 7.35355 7.14642C7.25979 7.05265 7.13261 6.99997 7 6.99997C6.86739 6.99997 6.74021 7.05265 6.64645 7.14642C6.55268 7.24019 6.5 7.36736 6.5 7.49997V12.4675C5.53394 12.3448 4.64568 11.8743 4.00146 11.1441C3.35724 10.4138 3.00121 9.47379 3 8.49997V5.99997H11V8.49997C10.9988 9.47379 10.6428 10.4138 9.99854 11.1441C9.35432 11.8743 8.46606 12.3448 7.5 12.4675Z" fill="#1C1C1C"/>
</svg>
