<svg width="16" height="12" viewBox="0 0 16 12" fill="none" xmlns="http://www.w3.org/2000/svg">
<path d="M8 3.50001C7.50555 3.50001 7.0222 3.64663 6.61108 3.92133C6.19995 4.19604 5.87952 4.58648 5.6903 5.0433C5.50108 5.50011 5.45158 6.00278 5.54804 6.48773C5.6445 6.97269 5.8826 7.41814 6.23224 7.76777C6.58187 8.11741 7.02732 8.35551 7.51228 8.45197C7.99723 8.54843 8.4999 8.49893 8.95671 8.30971C9.41353 8.12049 9.80397 7.80006 10.0787 7.38893C10.3534 6.97781 10.5 6.49446 10.5 6.00001C10.5 5.33697 10.2366 4.70108 9.76777 4.23224C9.29893 3.7634 8.66304 3.50001 8 3.50001ZM8 7.50001C7.70333 7.50001 7.41332 7.41203 7.16665 7.24721C6.91997 7.08239 6.72771 6.84812 6.61418 6.57403C6.50065 6.29994 6.47095 5.99834 6.52882 5.70737C6.5867 5.4164 6.72956 5.14913 6.93934 4.93935C7.14912 4.72957 7.4164 4.58671 7.70737 4.52883C7.99834 4.47095 8.29994 4.50066 8.57403 4.61419C8.84812 4.72772 9.08239 4.91998 9.24721 5.16665C9.41203 5.41333 9.5 5.70334 9.5 6.00001C9.5 6.39783 9.34197 6.77936 9.06066 7.06067C8.77936 7.34197 8.39783 7.50001 8 7.50001ZM12.6069 7.94626C12.3921 8.45412 12.0947 8.92295 11.7269 9.33376C11.6378 9.43013 11.5144 9.48763 11.3833 9.49384C11.2523 9.50005 11.124 9.45447 11.0262 9.36694C10.9284 9.27942 10.869 9.15696 10.8607 9.02599C10.8524 8.89502 10.8959 8.76604 10.9819 8.66688C11.6384 7.93385 12.0014 6.98438 12.0014 6.00032C12.0014 5.01626 11.6384 4.06679 10.9819 3.33376C10.9369 3.28504 10.902 3.22786 10.8793 3.16554C10.8566 3.10322 10.8465 3.037 10.8496 2.97074C10.8528 2.90449 10.8691 2.83952 10.8976 2.77962C10.926 2.71972 10.9662 2.66609 11.0156 2.62185C11.065 2.57761 11.1227 2.54365 11.1854 2.52194C11.2481 2.50023 11.3145 2.49121 11.3807 2.4954C11.4469 2.49959 11.5116 2.51691 11.571 2.54635C11.6304 2.57579 11.6834 2.61676 11.7269 2.66688C12.3582 3.37334 12.7761 4.2445 12.9318 5.17906C13.0876 6.11362 12.9749 7.07321 12.6069 7.94626ZM4.3125 4.44313C4.01749 5.14149 3.92701 5.9093 4.05161 6.6571C4.1762 7.40491 4.51075 8.10191 5.01625 8.66688C5.10221 8.76604 5.14574 8.89502 5.13745 9.02599C5.12916 9.15696 5.06971 9.27942 4.97193 9.36694C4.87415 9.45447 4.74588 9.50005 4.6148 9.49384C4.48371 9.48763 4.36032 9.43013 4.27125 9.33376C3.45037 8.41748 2.99644 7.23053 2.99644 6.00032C2.99644 4.77011 3.45037 3.58316 4.27125 2.66688C4.35969 2.56784 4.48384 2.50799 4.61641 2.50048C4.74897 2.49298 4.87909 2.53845 4.97813 2.62688C5.07717 2.71532 5.13703 2.83947 5.14453 2.97204C5.15203 3.1046 5.10656 3.23472 5.01813 3.33376C4.72313 3.66194 4.48468 4.03683 4.3125 4.44313ZM15.5 6.00001C15.503 7.96359 14.7332 9.84949 13.3569 11.25C13.3113 11.2987 13.2565 11.3378 13.1957 11.365C13.1348 11.3922 13.0691 11.4069 13.0025 11.4083C12.9359 11.4098 12.8696 11.3979 12.8076 11.3733C12.7456 11.3488 12.6892 11.3121 12.6416 11.2654C12.594 11.2188 12.5562 11.163 12.5305 11.1016C12.5048 11.0401 12.4916 10.9741 12.4917 10.9074C12.4919 10.8407 12.5053 10.7748 12.5313 10.7134C12.5573 10.652 12.5953 10.5965 12.6431 10.55C13.8348 9.33586 14.5025 7.70253 14.5025 6.00126C14.5025 4.29999 13.8348 2.66666 12.6431 1.45251C12.55 1.35786 12.4982 1.23008 12.4993 1.09728C12.5003 0.964481 12.5541 0.83754 12.6488 0.744382C12.7434 0.651225 12.8712 0.599482 13.004 0.600537C13.1368 0.601592 13.2637 0.655358 13.3569 0.750007C14.7332 2.15053 15.503 4.03642 15.5 6.00001ZM3.35688 10.5488C3.40292 10.5956 3.43929 10.6511 3.46389 10.712C3.4885 10.7729 3.50086 10.8381 3.50028 10.9038C3.4997 10.9695 3.48619 11.0344 3.46051 11.0949C3.43483 11.1554 3.39749 11.2102 3.35063 11.2563C3.30376 11.3023 3.24829 11.3387 3.18737 11.3633C3.12645 11.3879 3.06128 11.4002 2.99558 11.3997C2.92989 11.3991 2.86495 11.3856 2.80447 11.3599C2.744 11.3342 2.68917 11.2969 2.64313 11.25C1.26699 9.84905 0.495941 7.96378 0.495941 6.00001C0.495941 4.03623 1.26699 2.15096 2.64313 0.750007C2.68866 0.701325 2.74347 0.662239 2.80433 0.635047C2.86519 0.607855 2.93087 0.593107 2.99751 0.591669C3.06415 0.590231 3.13041 0.602134 3.19239 0.626676C3.25436 0.651218 3.3108 0.687904 3.35839 0.734578C3.40598 0.781251 3.44376 0.836969 3.4695 0.898455C3.49525 0.959941 3.50843 1.02595 3.50829 1.09261C3.50815 1.15927 3.49468 1.22523 3.46868 1.2866C3.44268 1.34798 3.40467 1.40354 3.35688 1.45001C2.16517 2.66416 1.49753 4.29748 1.49753 5.99876C1.49753 7.70003 2.16517 9.33336 3.35688 10.5475V10.5488Z" fill="#1C1C1C"/>
</svg>
